<svg xmlns="http://www.w3.org/2000/svg" width="1200" height="630" viewBox="0 0 1200 630" font-family="system-ui, sans-serif">
  <defs>
    <linearGradient id="bg" x1="0" y1="0" x2="1" y2="1">
      <stop offset="0" stop-color="#0a0a0b"/>
      <stop offset="1" stop-color="#131316"/>
    </linearGradient>
    <linearGradient id="accent" x1="0" y1="0" x2="1" y2="0">
      <stop offset="0" stop-color="#8b8bff"/>
      <stop offset="1" stop-color="#2dd4bf"/>
    </linearGradient>
  </defs>
  <rect width="1200" height="630" fill="url(#bg)"/>
  <g stroke="#34343b" stroke-width="1" opacity="0.25">
    <line x1="0" y1="88" x2="1200" y2="88"/><line x1="0" y1="176" x2="1200" y2="176"/>
    <line x1="0" y1="264" x2="1200" y2="264"/><line x1="0" y1="352" x2="1200" y2="352"/>
    <line x1="0" y1="440" x2="1200" y2="440"/><line x1="0" y1="528" x2="1200" y2="528"/>
  </g>
  <rect x="0" y="0" width="1200" height="6" fill="url(#accent)"/>
  <g transform="translate(80,90)">
    <rect width="44" height="44" rx="10" fill="#4f46e5"/>
    <text x="22" y="31" text-anchor="middle" font-family="monospace" font-size="24" font-weight="700" fill="#ffffff">&gt;</text>
    <text x="60" y="30" font-family="monospace" font-size="22" font-weight="600" fill="#fafafa">CursorCraft</text>
  </g>
  <text x="80" y="220" font-family="monospace" font-size="22" letter-spacing="4" fill="#8b8bff">UNOFFICIAL COMMUNITY GUIDE</text>
  <text x="80" y="300" font-size="68" font-weight="700" fill="#fafafa" letter-spacing="-1">Master Cursor.</text>
  <text x="80" y="376" font-size="68" font-weight="700" fill="#fafafa" letter-spacing="-1">Secure it. Scale it.</text>
  <text x="80" y="446" font-size="27" fill="#a1a1aa">Get maximum value from Cursor across your team </text>
  <text x="80" y="484" font-size="27" fill="#a1a1aa">without leaking code or burning budget.</text>
  <text x="80" y="565" font-family="monospace" font-size="20" fill="#71717a">Local-first · Your code &amp; keys never leave your browser · Open source</text>
</svg>
